Coordinates
version=1
nRows=16
nColumns=42
inDegrees=yes

Units are S.I. units (second, meters, Newtons, ...)
If the header above contains a line with 'inDegrees', this indicates whether rotational values are in degrees (yes) or radians (no).

endheader
time	pelvis_tilt	pelvis_list	pelvis_rotation	pelvis_tx	pelvis_ty	pelvis_tz	hip_flexion_r	hip_adduction_r	hip_rotation_r	knee_angle_r	knee_adduction_r	knee_angle_r_beta	ankle_angle_r	subtalar_angle_r	mtp_angle_r	hip_flexion_l	hip_adduction_l	hip_rotation_l	knee_angle_l	knee_adduction_l	knee_angle_l_beta	ankle_angle_l	subtalar_angle_l	mtp_angle_l	lumbar_extension	lumbar_bending	lumbar_rotation	arm_flex_r	arm_add_r	arm_rot_r	elbow_flex_r	pro_sup_r	wrist_flex_r	wrist_dev_r	arm_flex_l	arm_add_l	arm_rot_l	elbow_flex_l	pro_sup_l	wrist_flex_l	wrist_dev_l
      0.22000000	     -4.09557717	     -1.45793746	      8.90585585	     -1.80167656	      0.86580854	     -0.19629042	     26.00018917	     -6.03357964	    -12.80753600	      4.00958017	      9.35270461	      0.06998038	      0.28166476	     -4.24453129	     -9.44740577	     -8.45605336	     -9.81386900	     -0.02589479	      9.74244499	     22.98449958	      0.17003774	     16.92626741	      5.34994418	     -9.44740577	    -10.13713189	      3.15589076	     -5.79148530	     -6.53736663	    -11.68736706	     -7.68743932	     17.84052309	     90.00000001	      0.00000000	      0.00000000	      3.31295287	    -17.90598173	      6.68729204	     31.33465772	     90.00000001	      0.00000000	      0.00000000
      0.23000000	     -4.02689321	     -1.52989428	      9.08252022	     -1.79008571	      0.86508688	     -0.19628606	     25.96522163	     -5.91976296	    -12.78476299	      4.84989056	      9.36820645	      0.08464656	     -0.01113755	     -4.35802273	     -9.41927029	     -9.00215532	    -10.15245560	      0.32410030	     10.30603890	     23.02180317	      0.17987431	     16.79368214	      5.40455844	     -9.41927029	    -10.10426324	      3.41773665	     -5.98337320	     -6.65303603	    -11.60551409	     -7.67711677	     17.85898892	     90.00000001	      0.00000000	      0.00000000	      3.05072744	    -17.91926196	      6.57533450	     31.21026156	     90.00000001	      0.00000000	      0.00000000
      0.24000000	     -4.00008720	     -1.60348538	      9.23396519	     -1.77818848	      0.86456789	     -0.19630594	     25.86127622	     -5.80423325	    -12.35370455	      5.69524796	      9.41696132	      0.09940083	     -0.21641602	     -4.27849950	     -9.40518120	     -9.48566640	    -10.41040537	      0.83754556	     10.86164606	     22.90520324	      0.18957149	     16.63043863	      5.47633566	     -9.40518120	     -9.97837048	      3.68007464	     -6.06004712	     -6.92436154	    -11.52545521	     -7.67649011	     17.87663780	     90.00000001	      0.00000000	      0.00000000	      2.67473638	    -17.89044692	      6.54581502	     31.11235117	     90.00000001	      0.00000000	      0.00000000
      0.25000000	     -3.82726677	     -1.87353294	      9.43184956	     -1.76632899	      0.86435949	     -0.19607823	     25.87014901	     -5.53849841	    -12.88725286	      7.40410401	      9.40197891	      0.12922599	     -1.01834277	     -4.98688520	     -9.36787714	     -9.90793952	    -11.11412226	      1.26656188	     11.79725442	     23.12311765	      0.20590093	     16.13102178	      5.38398124	     -9.36787714	    -10.02084004	      4.18164745	     -6.25070288	     -6.88178219	    -11.50561091	     -7.61073626	     17.72656374	     90.00000001	      0.00000000	      0.00000000	      2.40596962	    -17.82658438	      6.37674554	     30.72859591	     90.00000001	      0.00000000	      0.00000000
      0.26000000	     -3.77085283	     -2.08152174	      9.57670333	     -1.75431981	      0.86430396	     -0.19583672	     25.88729353	     -5.33972809	    -12.68905528	      8.94659219	      9.44874287	      0.15614749	     -1.70280783	     -5.62424006	     -9.31709443	    -10.11228568	    -11.63704644	      1.82595214	     12.87002230	     23.17101019	      0.22462426	     15.53733213	      5.20715485	     -9.31709443	     -9.90661362	      4.58715288	     -6.37215812	     -6.91413457	    -11.44648347	     -7.51725173	     17.40998318	     90.00000001	      0.00000000	      0.00000000	      2.11789393	    -17.68353843	      6.12888387	     30.19765007	     90.00000001	      0.00000000	      0.00000000
      0.27000000	     -3.58118942	     -2.25846915	      9.64428157	     -1.74213445	      0.86462765	     -0.19548673	     25.64266189	     -5.11165927	    -11.85950918	     10.27786664	      9.57642713	      0.17938261	     -2.00277284	     -5.75591282	     -9.29546935	    -10.46728154	    -12.15855525	      2.57310251	     13.85182525	     23.29547632	      0.24175996	     14.99443062	      5.17713510	     -9.29546935	     -9.97573634	      4.95979604	     -6.41712938	     -6.99684963	    -11.40565286	     -7.49031668	     17.42405127	     90.00000001	      0.00000000	      0.00000000	      1.68427718	    -17.61953465	      6.05699932	     29.96533021	     90.00000001	      0.00000000	      0.00000000
      0.28000000	     -3.49122892	     -2.58426816	      9.71340590	     -1.72996768	      0.86507918	     -0.19501447	     25.64735586	     -4.77378360	    -11.43007380	     11.97727131	      9.67194392	      0.20904282	     -2.49150872	     -7.05967188	     -9.25169253	    -10.38766733	    -12.87110030	      2.94273040	     15.53694431	     23.42283995	      0.27117083	     13.57256282	      4.63133288	     -9.25169253	     -9.87312941	      5.50833763	     -6.42030950	     -7.00978485	    -11.37113317	     -7.38949911	     17.14906641	     90.00000001	      0.00000000	      0.00000000	      1.30183865	    -17.43938265	      5.83337757	     29.38800738	     90.00000001	      0.00000000	      0.00000000
      0.29000000	     -3.41241259	     -2.82845077	      9.70610715	     -1.71785844	      0.86584804	     -0.19437761	     25.32522873	     -4.39525989	     -9.03631358	     12.75401233	     10.08348878	      0.22259951	     -3.64844895	    -10.36456815	     -9.10020114	    -10.24050786	    -13.48876530	      3.56137691	     17.19934277	     23.63765597	      0.30018516	     12.30330573	      4.07456445	     -9.10020114	     -9.80413641	      5.90112539	     -6.39515383	     -6.91040300	    -11.33732333	     -7.19513171	     16.59162047	     90.00000001	      0.00000000	      0.00000000	      1.06636728	    -17.10969456	      5.11820258	     28.42267291	     90.00000001	      0.00000000	      0.00000000
      0.30000000	     -3.14868833	     -3.06806035	      9.66650562	     -1.70559609	      0.86687036	     -0.19367781	     24.97019075	     -4.07877369	     -7.97870805	     14.08915643	     10.41950725	      0.24590217	     -3.39808985	    -10.61957253	     -9.07369725	    -10.23233570	    -14.23043352	      4.31952311	     18.89635755	     24.12532239	      0.32980366	     10.83961126	      3.83453255	     -9.07369725	     -9.96206580	      6.32983925	     -6.33469253	     -6.97512690	    -11.32617427	     -7.17260044	     16.70961812	     90.00000001	      0.00000000	      0.00000000	      0.58440508	    -17.02477130	      5.08071659	     28.26258816	     90.00000001	      0.00000000	      0.00000000
      0.31000000	     -3.05141214	     -3.36715353	      9.59280320	     -1.69331353	      0.86795846	     -0.19285223	     24.67395943	     -3.64734769	     -7.05413743	     15.15835825	     10.68446962	      0.26456326	     -3.01636732	    -11.43919080	     -9.04047495	     -9.76427238	    -14.95307056	      4.70953612	     21.19891213	     24.38685066	      0.36999081	      8.52281253	      3.10020992	     -9.04047495	     -9.90017179	      6.77433200	     -6.16531931	     -7.04442422	    -11.29343067	     -7.11013778	     16.63725710	     90.00000001	      0.00000000	      0.00000000	      0.01552455	    -16.86589884	      4.99349509	     27.86954605	     90.00000001	      0.00000000	      0.00000000
      0.32000000	     -2.95071671	     -3.61255450	      9.44272113	     -1.68114084	      0.86925865	     -0.19198706	     24.23343209	     -3.22716469	     -5.95057935	     15.91757599	     11.00733126	      0.27781411	     -2.76040154	    -12.35989919	     -9.01408820	     -9.19337531	    -15.61424676	      5.22385272	     23.61000763	     24.74753202	      0.41207237	      6.06789189	      2.25464890	     -9.01408820	     -9.87791882	      7.15979294	     -5.96516347	     -6.98367736	    -11.31106118	     -7.04647631	     16.44071856	     90.00000001	      0.00000000	      0.00000000	     -0.46913787	    -16.65369978	      4.87172240	     27.35483732	     90.00000001	      0.00000000	      0.00000000
      0.33000000	     -2.83233092	     -3.80332584	      9.24657272	     -1.66897041	      0.87066761	     -0.19102452	     23.65628115	     -2.82855591	     -5.06204404	     16.50638536	     11.30349155	      0.28809077	     -2.43013849	    -13.04075247	     -8.98145350	     -8.53299701	    -16.26398485	      5.68867219	     26.19320045	     25.21502071	      0.45715759	      3.43727984	      1.34553502	     -8.98145350	     -9.89427831	      7.44751977	     -5.70314318	     -6.93992061	    -11.29904418	     -6.96786845	     16.27977244	     90.00000001	      0.00000000	      0.00000000	     -0.96122857	    -16.45027440	      4.68627779	     26.82211448	     90.00000001	      0.00000000	      0.00000000
      0.34000000	     -2.70116160	     -4.01232326	      9.08171708	     -1.65679767	      0.87220950	     -0.19009798	     22.90931095	     -2.39167357	     -4.72443603	     16.85794370	     11.48316788	      0.29422662	     -1.74378535	    -13.25004561	     -8.95463205	     -7.75189361	    -16.94030065	      6.34602274	     28.86684733	     25.76945167	      0.50382153	      0.61713284	      0.57548078	     -8.95463205	     -9.90593278	      7.77026895	     -5.48478390	     -6.90869901	    -11.29866334	     -6.90136240	     16.18993778	     90.00000001	      0.00000000	      0.00000000	     -1.49356244	    -16.24414780	      4.52896531	     26.37059420	     90.00000001	      0.00000000	      0.00000000
      0.35000000	     -2.61872213	     -4.10595168	      8.86535717	     -1.64469775	      0.87376415	     -0.18922641	     22.15374801	     -2.08385020	     -4.78140022	     17.20157958	     11.57941874	      0.30022420	     -0.95412270	    -12.80435158	     -8.90482279	     -6.78433303	    -17.43118719	      6.80797493	     31.81193239	     26.17667486	      0.55522296	     -2.39642344	     -0.51114127	     -8.90482279	     -9.89726867	      7.93739774	     -5.19079484	     -6.89298844	    -11.32477869	     -6.77450575	     16.07859031	     90.00000001	      0.00000000	      0.00000000	     -1.99325621	    -16.00969007	      4.23365112	     25.84314922	     90.00000001	      0.00000000	      0.00000000
      0.36000000	     -2.53380491	     -4.26569072	      8.67666617	     -1.63262235	      0.87533556	     -0.18832366	     21.26315356	     -1.67142584	     -5.15152009	     17.30675663	     11.55610923	      0.30205989	      0.02965986	    -12.04557281	     -8.86778315	     -5.72355623	    -18.02417804	      7.43465398	     34.74032299	     26.69885025	      0.60633302	     -5.29121796	     -1.37826737	     -8.86778315	     -9.86987507	      8.16389447	     -4.92219142	     -6.85779079	    -11.33110479	     -6.67294818	     16.04619067	     90.00000001	      0.00000000	      0.00000000	     -2.56526179	    -15.79228782	      4.04097815	     25.44192782	     90.00000001	      0.00000000	      0.00000000
      0.37000000	     -2.43994985	     -4.28742967	      8.52473133	     -1.62059375	      0.87688322	     -0.18756714	     20.39563979	     -1.44628892	     -6.37090404	     17.67572742	     11.32515843	      0.30849964	      1.58750107	     -9.54953842	     -8.74569798	     -4.58611635	    -18.39260745	      8.14997745	     37.69253338	     27.13505838	      0.65785881	     -7.89554823	     -2.28213001	     -8.74569798	     -9.85628237	      8.23502520	     -4.73376809	     -6.83594316	    -11.37149484	     -6.36051421	     16.04728964	     90.00000001	      0.00000000	      0.00000000	     -3.12887364	    -15.54202481	      3.55196677	     24.95554836	     90.00000001	      0.00000000	      0.00000000
